<svg height="512pt" viewBox="-11 0 512 512" width="512pt" xmlns="http://www.w3.org/2000/svg"><path d="m83.566406 451.28125h322.867188c51.21875-44.90625 83.566406-110.8125 83.566406-184.28125 0-135.308594-109.691406-245-245-245s-245 109.691406-245 245c0 73.46875 32.347656 139.375 83.566406 184.28125zm0 0" fill="#ffd03d"/><path d="m325.582031 253.617188c5.476563-14.527344 14-28.527344 3.578125-45.777344-9.519531-15.753906-10.167968-30.753906-10.964844-34.574219l-.003906.003906c-.277344-1.472656-.613281-2.949219-.980468-4.421875-.683594-23.027344-13.78125-44.175781-34.699219-54.96875-22.242188-11.476562-51.742188-11.480468-73.992188 0-21.488281 11.085938-34.730469 33.101563-34.730469 56.855469v5.246094c-.285156 1.8125-.53125 3.625-.703124 5.429687-1.316407 6.824219-4.085938 16.941406-9.820313 26.429688-10.421875 17.25-1.898437 31.253906 3.578125 45.78125 2.066406 5.480468 2.515625 11.441406 1.414062 17.191406-9.625 50.1875 10.378907 47.925781 12.605469 68.109375h1.132813c4.25 13.007813 4.277344 26.089844 3.910156 32.730469-.058594 1.09375 1.445312 1.476562 1.90625.476562 2.371094-5.164062 5.609375-15.652344 4.589844-33.207031h107.621094c-1.019532 17.558594 2.21875 28.050781 4.59375 33.214844.460937 1 1.964843.617187 1.902343-.480469-.523437-9.457031-.265625-32.003906 11.910157-48.769531 10.667968-14.6875 9.332031-33.394531 5.714843-52.195313-1.097656-5.710937-.617187-11.628906 1.4375-17.074218zm0 0" fill="#771c17"/><path d="m301.359375 265.570312c0-.375.023437-.746093.054687-1.117187h-110.402343c.035156.371094.054687.742187.054687 1.117187 0 12.714844-17.371094 16.621094-22.777344 5.042969-9.492187 51.308594 10.296876 47.671875 12.574219 68.308594h1.132813c4.253906 13.003906 4.277344 26.085937 3.910156 32.726563-.058594 1.097656 1.445312 1.476562 1.90625.480468 2.375-5.167968 5.613281-15.65625 4.59375-33.207031h107.617188c-1.019532 17.558594 2.222656 28.046875 4.597656 33.214844.457031.996093 1.960937.617187 1.898437-.480469-.519531-9.457031-.265625-32.003906 11.914063-48.769531 10.914062-15.03125 9.140625-34.050781 5.699218-52.265625-5.414062 11.578125-22.773437 7.652344-22.773437-5.050782zm0 0" fill="#591511"/><path d="m394.332031 382.144531c-11.632812-23.261719-32.042969-29.753906-41.34375-31.542969 0 0-76.335937-13.925781-76.335937-41.003906 0-4.398437 0-3.078125 0-5.925781-7.667969 6.855469-20.820313 15.589844-31.652344 15.851563-10.828125-.261719-23.980469-8.996094-31.648438-15.851563v5.925781c0 27.078125-76.335937 41.003906-76.335937 41.003906-9.300781 1.789063-29.714844 8.285157-41.34375 31.542969-7.796875 15.589844-11.28125 41.15625-12.101563 69.136719 15.859376 13.90625 33.527344 25.789062 52.605469 35.265625.082031-3.515625.125-6.964844.152344-10.316406-.003906-.625.503906-1.132813 1.128906-1.132813.578125 0 1.0625.433594 1.121094 1.007813.386719 3.800781.796875 7.957031 1.367187 12.277343 31.839844 15.136719 67.453126 23.617188 105.054688 23.617188s73.214844-8.480469 105.054688-23.617188c.574218-4.320312.980468-8.476562 1.367187-12.277343.058594-.574219.546875-1.007813 1.125-1.007813.625 0 1.128906.507813 1.128906 1.132813.023438 3.367187.070313 6.816406.148438 10.316406 19.082031-9.476563 36.75-21.359375 52.609375-35.265625-.824219-27.980469-4.304688-53.546875-12.101563-69.136719zm0 0" fill="#ffaa7b"/><path d="m213.347656 303.671875v5.925781c0 27.078125-76.332031 41.003906-76.332031 41.003906-9.300781 1.789063-29.714844 8.285157-41.347656 31.542969-7.792969 15.589844-11.277344 41.15625-12.101563 69.136719 15.859375 13.90625 33.53125 25.789062 52.609375 35.265625.082031-3.515625.125-6.964844.148438-10.316406 0-.625.503906-1.132813 1.128906-1.132813.582031 0 1.066406.433594 1.125 1.007813.386719 3.800781.792969 7.957031 1.367187 12.277343 7.699219 3.660157 15.625 6.921876 23.742188 9.777344 8.144531-8.882812 16.121094-21.347656 12.527344-24.941406-8.160156-8.160156-45.332032-64.949219 10.414062-84.949219 45.695313-16.394531 55.695313-55.292969 57.816406-68.785156-10.722656-.535156-23.554687-9.074219-31.097656-15.8125zm0 0" fill="#ff9161"/><path d="m276.898438 311.855469c-5.632813 14.433593-15.472657 25.246093-31.898438 25.246093s-26.207031-10.8125-31.835938-25.246093l-7.976562 12.601562c0 14.019531 15.0625 36.070313 39.8125 36.070313s39.8125-22.050782 39.8125-36.070313zm0 0" fill="#ffd03d"/><g fill="#37c47a"><path d="m403.996094 398.867188c-1.933594-8.410157-4.496094-16.382813-8.824219-23.679688-1.066406-1.796875-3.441406-2.277344-5.121094-1.027344-15.410156 11.453125-36.632812 33.785156-47.796875 67.398438l2.699219 5.988281s20.707031-29.082031 57.027344-44.667969c1.550781-.667968 2.390625-2.363281 2.015625-4.011718zm0 0"/><path d="m403.996094 398.867188c-1.933594-8.410157-4.496094-16.382813-8.824219-23.679688-1.066406-1.796875-3.441406-2.277344-5.121094-1.027344-15.410156 11.453125-36.632812 33.785156-47.796875 67.398438l2.699219 5.988281s20.707031-29.082031 57.027344-44.667969c1.550781-.667968 2.390625-2.363281 2.015625-4.011718zm0 0"/><path d="m100.230469 373.632812c-1.675781-1.222656-4.019531-.738281-5.09375 1.035157-4.453125 7.355469-7.042969 15.242187-9.039063 23.8125-.386718 1.65625.464844 3.367187 2.03125 4.027343 36.917969 15.53125 57.917969 45.039063 57.917969 45.039063l2.699219-5.988281c-11.339844-34.152344-32.984375-56.578125-48.515625-67.925782zm0 0"/></g><path d="m127.386719 400.785156c1.683593 9.183594-6.753907 16.980469-15.789063 14.53125 22.203125 15.042969 34.449219 32.230469 34.449219 32.230469l2.699219-5.988281c-5.382813-16.210938-13.089844-29.777344-21.359375-40.773438zm0 0" fill="#2bb381"/><path d="m182.753906 241.96875s-3.890625-24.621094.589844-39.285156c-4.066406-2.710938-11.921875-4.03125-15.453125-.578125-7.234375 7.070312-1.9375 17.75.601563 24.492187.777343 2.074219 1.28125 4.167969 1.507812 6.265625.492188 4.558594 2.964844 11.234375 13.21875 11.078125-.15625-.660156-.3125-1.304687-.464844-1.972656zm0 0" fill="#ffaa7b"/><path d="m181.191406 221.984375c-2.203125 5.8125-9.890625 6.949219-13.695312 2.054687 1.160156 2.953126 2.113281 5.183594 2.507812 8.824219.492188 4.5625 2.964844 11.234375 13.214844 11.078125-.15625-.65625-.3125-1.304687-.464844-1.972656 0 0-1.476562-9.367188-1.5625-19.984375zm0 0" fill="#ff9161"/><path d="m323.140625 202.105469c-3.53125-3.453125-11.386719-2.132813-15.453125.578125 4.480469 14.664062.589844 39.285156.589844 39.285156-.152344.667969-.308594 1.3125-.464844 1.972656 10.25.15625 12.722656-6.519531 13.214844-11.078125.230468-2.097656.730468-4.191406 1.507812-6.265625 2.539063-6.742187 7.839844-17.421875.605469-24.492187zm0 0" fill="#ffaa7b"/><path d="m309.839844 222.035156c-.050782 5.792969-.695313 16.265625-2.027344 21.90625 10.25.15625 12.722656-6.519531 13.21875-11.078125.40625-3.761719 1.496094-6.257812 2.527344-8.882812-3.761719 4.929687-11.46875 3.867187-13.71875-1.945313zm0 0" fill="#ff9161"/><path d="m304.316406 195.054688c-1.476562-1.664063-2.289062-3.609376-2.351562-5.621094-.226563-7.667969-2.164063-26.433594-15.167969-35.09375-9.226563-6.144532-22.195313-6.078125-38.542969.191406-1.765625.679688-3.710937.679688-5.472656 0-16.351562-6.269531-29.320312-6.332031-38.542969-.191406-13.007812 8.660156-14.941406 27.425781-15.171875 35.09375-.058594 2.011718-.871094 3.957031-2.347656 5.621094-8.144531 9.179687-6.363281 35.988281-4.460938 47.027343 4.207032 18.570313 10.300782 34.765625 18.113282 48.132813 7.929687 13.570312 19.9375 24.125 34.726562 30.523437 6.621094 2.863281 14.21875 2.863281 20.839844 0 14.789062-6.398437 26.796875-16.953125 34.726562-30.523437 7.808594-13.363282 13.902344-29.558594 18.121094-48.164063 1.824219-11.605469 3.765625-37.710937-4.46875-46.996093zm0 0" fill="#fb9"/><path d="m231.546875 290.214844c-5.597656-13.367188-9.960937-29.5625-12.980469-48.132813-1.359375-11.039062-2.636718-37.847656 3.199219-47.027343 1.058594-1.664063 1.640625-3.609376 1.683594-5.621094.164062-7.667969 1.550781-26.433594 10.871093-35.09375.769532-.71875 1.578126-1.339844 2.421876-1.886719-13.53125-4.105469-24.449219-3.476563-32.507813 1.886719-13.003906 8.660156-14.941406 27.425781-15.167969 35.09375-.0625 2.011718-.875 3.957031-2.351562 5.621094-8.144532 9.179687-6.359375 35.988281-4.460938 47.027343 4.210938 18.570313 10.304688 34.765625 18.113282 48.132813 7.929687 13.570312 19.9375 24.125 34.726562 30.523437 6.625 2.863281 14.21875 2.863281 20.84375 0 .097656-.042969.191406-.089843.289062-.132812-10.503906-6.410157-19.035156-16.910157-24.679687-30.390625zm0 0" fill="#ffaa7b"/><path d="m213.675781 161.765625c6.734375.324219 14.152344 1.613281 22.195313 4.332031-6.488282-13.851562-15.34375-30.746094-25.691406-48.671875-24.964844-43.238281-49.117188-76.03125-53.945313-73.242187-4.828125 2.789062 11.492187 40.097656 36.457031 83.339844 7.210938 12.492187 14.351563 24.101562 20.984375 34.242187zm0 0" fill="#2bb381"/><path d="m191.515625 102.761719c3.882813-2.933594 4.867187-8.359375 2.261719-12.464844-18.386719-28.984375-33.792969-48.277344-37.542969-46.113281-3.753906 2.164062 5.261719 25.160156 21.167969 55.578125 2.683594 5.132812 9.339844 6.617187 13.953125 3.121093.054687-.042968.105469-.082031.160156-.121093zm0 0" fill="#37c47a"/><path d="m199.332031 162.535156c7.117188-1.140625 15.414063-1.28125 24.746094.464844-7.445313-9.996094-16.210937-21.074219-25.84375-32.554688-32.089844-38.25-61.570313-66.347656-65.84375-62.765624-4.269531 3.585937 18.285156 37.496093 50.378906 75.746093 5.640625 6.722657 11.203125 13.128907 16.5625 19.109375zm0 0" fill="#37c47a"/><path d="m176.507812 117.292969c2.867188-3.578125 2.710938-8.710938-.390624-12.089844-22.550782-24.558594-40.46875-40.253906-43.726563-37.523437-3.257813 2.734374 9.101563 23.125 29.394531 49.621093 3.660156 4.777344 10.84375 4.851563 14.597656.148438.042969-.054688.082032-.105469.125-.15625zm0 0" fill="#60d882"/><path d="m186.78125 165.835938c6.707031-2.496094 15.289062-4.414063 25.5-4.125-6.804688-6.171876-14.214844-12.640626-22.0625-19.222657-38.246094-32.09375-72.160156-54.648437-75.742188-50.378906-3.585937 4.273437 24.515626 33.753906 62.761719 65.84375 3.21875 2.703125 6.402344 5.328125 9.542969 7.882813zm0 0" fill="#2bb381"/><path d="m166.753906 132.78125c1.894532-3.941406.726563-8.683594-2.746094-11.339844-26.453124-20.253906-46.800781-32.585937-49.53125-29.328125-2.734374 3.253907 12.953126 21.164063 37.507813 43.710938 4.613281 4.234375 11.980469 2.789062 14.679687-2.859375.03125-.0625.058594-.121094.089844-.183594zm0 0" fill="#37c47a"/><path d="m276.292969 161.816406c6.640625-10.152344 13.792969-21.78125 21.015625-34.292968 24.964844-43.238282 41.289062-80.550782 36.460937-83.339844-4.832031-2.789063-28.984375 30.003906-53.945312 73.242187-10.457031 18.109375-19.386719 35.167969-25.890625 49.09375 8.085937-2.851562 15.5625-4.28125 22.359375-4.703125zm0 0" fill="#2bb381"/><path d="m298.703125 102.808594c4.613281 3.488281 11.257813 2 13.9375-3.128906 15.878906-30.375 24.875-53.332032 21.125-55.496094-3.746094-2.164063-19.128906 17.097656-37.496094 46.035156-2.609375 4.109375-1.617187 9.542969 2.277344 12.46875.050781.039062.105469.082031.15625.121094zm0 0" fill="#37c47a"/><path d="m290.78125 162.40625c5.328125-5.945312 10.847656-12.304688 16.453125-18.984375 32.089844-38.246094 54.644531-72.15625 50.375-75.742187-4.269531-3.582032-33.75 24.515624-65.84375 62.761718-9.707031 11.566406-18.53125 22.730469-26.011719 32.785156 9.425782-1.910156 17.808594-1.878906 25.027344-.820312zm0 0" fill="#37c47a"/><path d="m313.703125 117.367188c3.753906 4.691406 10.929687 4.609374 14.582031-.160157 20.25-26.449219 32.578125-46.796875 29.324219-49.527343-3.253906-2.730469-21.132813 12.925781-43.644531 37.4375-3.105469 3.378906-3.257813 8.519531-.386719 12.09375.042969.050781.085937.101562.125.15625zm0 0" fill="#60d882"/><path d="m375.523438 92.113281c-3.582032-4.273437-37.492188 18.28125-75.742188 50.375-7.863281 6.597657-15.289062 13.082031-22.109375 19.265625 10.320313-.445312 19.023437 1.378906 25.855469 3.832032 3.042968-2.476563 6.121094-5.015626 9.234375-7.628907 38.246093-32.09375 66.347656-61.574219 62.761719-65.84375zm0 0" fill="#2bb381"/><path d="m375.523438 92.113281c-2.726563-3.253906-23.019532 9.039063-49.421876 29.242188-3.472656 2.660156-4.640624 7.402343-2.738281 11.34375.03125.0625.058594.121093.085938.183593 2.703125 5.640626 10.0625 7.078126 14.667969 2.847657 24.496093-22.503907 40.136718-40.367188 37.40625-43.617188zm0 0" fill="#37c47a"/><path d="m234.210938 165.5625c3.636718 1.152344 7.398437 2.578125 11.289062 4.359375.90625-.414063 1.800781-.796875 2.691406-1.175781-.566406-16.710938-3.539062-42.234375-8.542968-70.597656-8.667969-49.167969-20.148438-88.242188-25.640626-87.273438-5.492187.96875-2.914062 41.613281 5.753907 90.78125 4.472656 25.355469 9.691406 48.023438 14.449219 63.90625zm0 0" fill="#2bb381"/><path d="m227.570312 86.730469c5.304688-1.042969 8.800782-6.144531 7.703126-11.441407-7.839844-37.863281-16.660157-65.226562-21.265626-64.414062-4.605468.8125-3.535156 29.546875 2.050782 67.8125.789062 5.414062 5.949218 9.148438 11.3125 8.082031.066406-.011719.132812-.027343.199218-.039062zm0 0" fill="#37c47a"/><path d="m225.394531 163.253906c5.648438 1.152344 11.667969 3.015625 18.027344 5.761719-3.792969-16.171875-10.65625-38.617187-19.554687-63.066406-17.078126-46.917969-35.167969-83.402344-40.40625-81.496094-5.238282 1.90625 4.355468 41.484375 21.433593 88.402344 6.980469 19.179687 14.128907 36.613281 20.5 50.398437zm0 0" fill="#37c47a"/><path d="m208.949219 92.554688c4.734375-2.074219 7-7.507813 5.058593-12.296876-13.695312-33.828124-26.3125-57.347656-30.546874-55.804687-4.230469 1.539063 1.21875 27.660156 12.464843 62.367187 1.734375 5.34375 7.703125 8.082032 12.839844 5.816407.0625-.027344.125-.054688.183594-.082031zm0 0" fill="#60d882"/><path d="m245.5 169.921875c3.496094-1.597656 6.894531-2.925781 10.183594-4.015625 4.789062-15.894531 10.050781-38.707031 14.554687-64.25 8.667969-49.167969 11.246094-89.8125 5.753907-90.78125-5.492188-.96875-16.972657 38.105469-25.640626 87.273438-4.960937 28.128906-7.925781 53.460937-8.527343 70.179687 1.214843.5 2.4375 1.027344 3.675781 1.59375zm0 0" fill="#2bb381"/><path d="m262.652344 86.742188c5.359375 1.054687 10.507812-2.675782 11.296875-8.085938 5.578125-38.25 6.648437-66.96875 2.042969-67.78125-4.605469-.8125-13.421876 26.539062-21.261719 64.386719-1.097657 5.300781 2.410156 10.410156 7.722656 11.441406.066406.015625.132813.027344.199219.039063zm0 0" fill="#37c47a"/><path d="m264.496094 163.488281c6.398437-13.820312 13.589844-31.339843 20.613281-50.632812 17.074219-46.914063 26.671875-86.496094 21.429687-88.402344-5.238281-1.90625-23.328124 34.582031-40.40625 81.496094-8.988281 24.695312-15.898437 47.347656-19.667968 63.554687 6.351562-2.832031 12.375-4.777344 18.03125-6.015625zm0 0" fill="#37c47a"/><path d="m281.269531 92.582031c5.136719 2.257813 11.09375-.484375 12.824219-5.824219 11.234375-34.675781 16.675781-60.765624 12.445312-62.304687-4.230468-1.542969-16.835937 21.949219-30.523437 55.746094-1.941406 4.792969.332031 10.230469 5.074219 12.300781.058594.027344.121094.054688.179687.082031zm0 0" fill="#60d882"/><path d="m245.5 169.921875c1.601562-.730469 3.171875-1.386719 4.730469-2.007813 2.933593-15.816406 4.898437-44.609374 4.898437-77.511718 0-49.925782-4.519531-90.402344-10.097656-90.402344-5.574219 0-10.097656 40.476562-10.097656 90.402344 0 32.628906 1.933594 61.214844 4.828125 77.113281 1.882812.726563 3.792969 1.515625 5.738281 2.40625zm0 0" fill="#37c47a"/><path d="m245.078125 85.019531h.101563c5.460937.007813 9.910156-4.390625 9.808593-9.855469-.8125-42.671874-4.960937-75.164062-9.957031-75.164062s-9.144531 32.492188-9.953125 75.167969c-.101563 5.460937 4.347656 9.863281 9.808594 9.851562zm0 0" fill="#60d882"/><path d="m324.726562 194.316406-3-17.804687c-.476562-2.835938-2.070312-5.367188-4.449218-6.992188-9.226563-6.296875-34.964844-19.4375-71.773438-2.597656v43.929687s47.265625-27.195312 76.386719-14.335937c1.488281.660156 3.105469-.589844 2.835937-2.199219zm0 0" fill="#f7b31c"/><path d="m166.273438 194.316406 3-17.804687c.480468-2.835938 2.074218-5.367188 4.453124-6.992188 9.226563-6.296875 34.960938-19.4375 71.773438-2.597656v43.929687s-47.265625-27.195312-76.386719-14.335937c-1.488281.660156-3.109375-.589844-2.839843-2.199219zm0 0" fill="#f9a11b"/><path d="m169.113281 196.515625c-1.488281.660156-3.109375-.59375-2.835937-2.199219l1.40625-8.355468c48.21875-14.175782 77.820312 24.890624 77.820312 24.890624s-47.269531-27.195312-76.390625-14.335937zm0 0" fill="#f7b31c"/><path d="m321.886719 196.515625c1.492187.660156 3.109375-.59375 2.839843-2.199219l-1.40625-8.355468c-48.21875-14.175782-77.820312 24.890624-77.820312 24.890624s47.269531-27.195312 76.386719-14.335937zm0 0" fill="#ffd03d"/><path d="m262.398438 160.832031c0-13.496093-7.566407-24.4375-16.898438-24.4375s-16.894531 10.941407-16.894531 24.4375c0 13.496094 7.5625 24.433594 16.894531 24.433594s16.898438-10.9375 16.898438-24.433594zm0 0" fill="#f9508d"/><path d="m253.738281 165.929688-9.269531-18.863282c-3.238281.390625-6-2.136718-6-5.3125 0-1.800781.886719-3.386718 2.246094-4.359375-7 2.988281-12.109375 12.347657-12.109375 23.4375 0 13.496094 7.566406 24.433594 16.898437 24.433594 7.113282 0 13.191406-6.359375 15.6875-15.355469-2.933594 3.785156-9.003906.628906-7.453125-3.980468zm0 0" fill="#f23c79"/><path d="m254.398438 160.832031c0-7.765625-3.984376-14.0625-8.898438-14.0625s-8.898438 6.296875-8.898438 14.0625 3.984376 14.058594 8.898438 14.058594 8.898438-6.292969 8.898438-14.058594zm0 0" fill="#f23c79"/><path d="m248.179688 170.050781c-4.457032 0-8.070313-5.707031-8.070313-12.75 0-4.085937 1.21875-7.714843 3.113281-10.046875-3.808594 1.59375-6.621094 7.058594-6.621094 13.578125 0 7.765625 3.984376 14.058594 8.902344 14.058594 3.5625 0 6.628906-3.316406 8.050782-8.101563-1.429688 2.023438-3.308594 3.261719-5.375 3.261719zm0 0" fill="#ea2864"/><path d="m360.710938 460.796875c-4.105469-.632813-7.925782 2.183594-8.550782 6.277344l-3.355468 21.890625c5.613281-2.628906 11.109374-5.460938 16.476562-8.492188l1.707031-11.128906c.625-4.09375-2.183593-7.917969-6.277343-8.546875zm0 0" fill="#ff9161"/><path d="m136.730469 466.074219c-.625-4.09375-4.445313-6.910157-8.546875-6.277344-4.09375.628906-6.90625 4.453125-6.277344 8.550781l1.765625 11.542969c5.375 3.066406 10.875 5.933594 16.492187 8.59375zm0 0" fill="#f97f55"/><path d="m334.011719 439.550781c-17.554688 2.808594-47.941407 13.710938-88.511719 56 0 0 2.316406 7.800781 8.789062 16.257813 34.550782-1.289063 67.273438-9.714844 96.726563-23.875 2.277344-15.753906-.070313-31.742188-3.308594-40.386719-2.09375-5.589844-7.796875-8.9375-13.695312-7.996094zm0 0" fill="#0d9369"/><path d="m245.5 495.554688c-40.566406-42.292969-70.953125-53.195313-88.507812-56-5.902344-.945313-11.605469 2.402343-13.695313 7.992187-3.273437 8.738281-5.636719 24.976563-3.234375 40.890625 29.453125 13.984375 62.132812 22.257812 96.625 23.40625 6.492188-8.46875 8.8125-16.289062 8.8125-16.289062zm0 0" fill="#0d9369"/><path d="m156.449219 433.042969c-5.414063-.839844-10.660157 2.246093-12.605469 7.367187-4.089844 10.765625-9.644531 30.316406-4.597656 47.648438 24.230468 11.613281 50.667968 19.347656 78.511718 22.425781 17.03125-10.785156 27.242188-26.644531 27.242188-26.644531-37.058594-38.496094-72.449219-48.304688-88.550781-50.796875zm0 0" fill="#37c47a"/><path d="m156.449219 433.042969c-5.414063-.839844-10.660157 2.246093-12.605469 7.367187-4.089844 10.765625-9.644531 30.316406-4.597656 47.648438 24.230468 11.613281 50.667968 19.347656 78.511718 22.425781 17.03125-10.785156 27.242188-26.644531 27.242188-26.644531-37.058594-38.496094-72.449219-48.304688-88.550781-50.796875zm0 0" fill="#37c47a"/><path d="m244.960938 483.898438c.023437-.039063.039062-.058594.039062-.058594-.007812-.011719-.019531-.019532-.027344-.03125-.003906.03125-.007812.058594-.011718.089844zm0 0" fill="#2bb381"/><path d="m173.191406 478.835938c0-14.730469 8.832032-27.386719 21.484375-32.988282-16.296875-8.230468-29.867187-11.507812-38.226562-12.804687-5.414063-.839844-10.660157 2.246093-12.605469 7.367187-4.089844 10.765625-9.644531 30.316406-4.597656 47.648438 14.105468 6.757812 28.964844 12.195312 44.40625 16.171875-6.464844-6.519531-10.460938-15.488281-10.460938-25.394531zm0 0" fill="#2bb381"/><path d="m333.550781 433.042969c-16.101562 2.492187-51.492187 12.300781-88.550781 50.796875 0 0 10.210938 15.859375 27.242188 26.644531 27.84375-3.082031 54.28125-10.8125 78.511718-22.425781 5.046875-17.332032-.507812-36.882813-4.597656-47.648438-1.945312-5.121094-7.191406-8.207031-12.605469-7.367187zm0 0" fill="#37c47a"/><path d="m284.796875 472.613281c0-11.527343 5.414063-21.78125 13.824219-28.382812-15.816406 7.523437-34.492188 19.738281-53.621094 39.609375 0 0 10.214844 15.859375 27.242188 26.644531 10.96875-1.210937 21.710937-3.160156 32.191406-5.769531-11.65625-5.976563-19.636719-18.105469-19.636719-32.101563zm0 0" fill="#2bb381"/><path d="m268.308594 470.183594c0 4.777344-3.875 8.652344-8.65625 8.652344-4.777344 0-8.652344-3.875-8.652344-8.652344 0-4.78125 3.875-8.65625 8.652344-8.65625 4.78125 0 8.65625 3.875 8.65625 8.65625zm0 0" fill="#f7b31c"/><path d="m281.746094 459.597656c0 4.777344-3.875 8.652344-8.652344 8.652344s-8.652344-3.875-8.652344-8.652344c0-4.78125 3.875-8.652344 8.652344-8.652344s8.652344 3.871094 8.652344 8.652344zm0 0" fill="#ffd03d"/><path d="m296.066406 450.429688c0 4.78125-3.875 8.65625-8.65625 8.65625-4.777344 0-8.652344-3.875-8.652344-8.65625 0-4.777344 3.875-8.652344 8.652344-8.652344 4.78125 0 8.65625 3.875 8.65625 8.652344zm0 0" fill="#f7b31c"/><path d="m311.007812 442.292969c0 4.777343-3.875 8.652343-8.65625 8.652343-4.777343 0-8.652343-3.875-8.652343-8.652343 0-4.78125 3.875-8.652344 8.652343-8.652344 4.78125 0 8.65625 3.871094 8.65625 8.652344zm0 0" fill="#ffd03d"/><path d="m327.007812 436.546875c0 4.777344-3.875 8.652344-8.65625 8.652344-4.777343 0-8.652343-3.875-8.652343-8.652344 0-4.78125 3.875-8.652344 8.652343-8.652344 4.78125 0 8.65625 3.871094 8.65625 8.652344zm0 0" fill="#f7b31c"/><path d="m343.632812 432.90625c0 4.777344-3.875 8.652344-8.652343 8.652344-4.78125 0-8.652344-3.875-8.652344-8.652344s3.871094-8.652344 8.652344-8.652344c4.777343 0 8.652343 3.875 8.652343 8.652344zm0 0" fill="#ffd03d"/><path d="m240.003906 470.183594c0 4.777344-3.875 8.652344-8.65625 8.652344-4.777344 0-8.652344-3.875-8.652344-8.652344 0-4.78125 3.875-8.65625 8.652344-8.65625 4.78125 0 8.65625 3.875 8.65625 8.65625zm0 0" fill="#f7b31c"/><path d="m226.5625 459.597656c0 4.777344-3.875 8.652344-8.652344 8.652344-4.78125 0-8.652344-3.875-8.652344-8.652344 0-4.78125 3.871094-8.652344 8.652344-8.652344 4.777344 0 8.652344 3.871094 8.652344 8.652344zm0 0" fill="#ffd03d"/><path d="m212.242188 450.429688c0 4.78125-3.875 8.65625-8.652344 8.65625s-8.652344-3.875-8.652344-8.65625c0-4.777344 3.875-8.652344 8.652344-8.652344s8.652344 3.875 8.652344 8.652344zm0 0" fill="#f7b31c"/><path d="m197.304688 442.292969c0 4.777343-3.875 8.652343-8.65625 8.652343-4.777344 0-8.652344-3.875-8.652344-8.652343 0-4.78125 3.875-8.652344 8.652344-8.652344 4.78125 0 8.65625 3.871094 8.65625 8.652344zm0 0" fill="#ffd03d"/><path d="m181.304688 436.546875c0 4.777344-3.875 8.652344-8.65625 8.652344-4.777344 0-8.652344-3.875-8.652344-8.652344 0-4.78125 3.875-8.652344 8.652344-8.652344 4.78125 0 8.65625 3.871094 8.65625 8.652344zm0 0" fill="#f7b31c"/><path d="m164.675781 432.90625c0 4.777344-3.875 8.652344-8.652343 8.652344-4.78125 0-8.652344-3.875-8.652344-8.652344s3.871094-8.652344 8.652344-8.652344c4.777343 0 8.652343 3.875 8.652343 8.652344zm0 0" fill="#ffd03d"/><path d="m245.503906 470.183594c-9.332031 0-16.898437 10.9375-16.898437 24.433594 0 6.660156 1.84375 12.695312 4.832031 17.105468 3.832031.175782 7.683594.277344 11.5625.277344 4.222656 0 8.421875-.105469 12.589844-.316406 2.972656-4.40625 4.808594-10.425782 4.808594-17.066406 0-13.496094-7.566407-24.433594-16.894532-24.433594zm0 0" fill="#f9a11b"/><path d="m253.738281 499.714844-9.269531-18.859375c-3.238281.386719-6-2.140625-6-5.316407 0-1.796874.886719-3.382812 2.246094-4.355468-7 2.984375-12.109375 12.34375-12.109375 23.433594 0 6.660156 1.84375 12.695312 4.832031 17.105468 3.832031.175782 7.683594.277344 11.5625.277344 4.21875 0 8.410156-.105469 12.574219-.316406 1.539062-2.28125 2.78125-4.980469 3.613281-7.988282-2.929688 3.789063-9 .628907-7.449219-3.980468zm0 0" fill="#f78e1c"/><path d="m254.398438 494.617188c0-7.765626-3.984376-14.058594-8.898438-14.058594s-8.898438 6.292968-8.898438 14.058594c0 7.765624 3.984376 14.0625 8.898438 14.0625s8.898438-6.296876 8.898438-14.0625zm0 0" fill="#ffd03d"/><path d="m248.179688 503.835938c-4.457032 0-8.070313-5.707032-8.070313-12.75 0-4.085938 1.21875-7.714844 3.113281-10.046876-3.808594 1.59375-6.621094 7.0625-6.621094 13.578126 0 7.765624 3.984376 14.0625 8.898438 14.0625 3.566406 0 6.632812-3.320313 8.050781-8.101563-1.425781 2.019531-3.304687 3.257813-5.371093 3.257813zm0 0" fill="#f7b31c"/><path d="m364.332031 399.851562c-8.542969 11.167969-16.546875 25.050782-22.078125 41.707032l2.699219 5.988281s12.148437-17.042969 34.132813-32.027344c-9.148438 1.832031-17.160157-6.523437-14.753907-15.667969zm0 0" fill="#2bb381"/><path d="m239.992188 336.738281c-13.445313-1.980469-21.796876-11.980469-26.828126-24.882812l-7.976562 12.601562c0 10.628907 8.664062 25.863281 23.636719 32.617188-5.472657-8.730469.714843-20.261719 11.167969-20.335938zm0 0" fill="#f7b31c"/></svg>