<?xml version="1.0" encoding="iso-8859-1"?>
<!-- Generator: Adobe Illustrator 18.0.0, SVG Export Plug-In . SVG Version: 6.00 Build 0)  -->
<!DOCTYPE svg PUBLIC "-//W3C//DTD SVG 1.1//EN" "http://www.w3.org/Graphics/SVG/1.1/DTD/svg11.dtd">
<svg version="1.1" id="Capa_1" xmlns="http://www.w3.org/2000/svg" xmlns:xlink="http://www.w3.org/1999/xlink" x="0px" y="0px"
	 viewBox="0 0 275.659 275.659" style="enable-background:new 0 0 275.659 275.659;" xml:space="preserve">
<g>
	<path style="fill:#1D1D1B;" d="M273.116,96.326c-4.394-5.212-15.141-8.5-20.92-11.498c-9.56-4.958-19.099-9.906-28.961-14.224
		c0.009-0.044,0.035-0.07,0.041-0.117c1.062-7.27,1.239-14.831,1.215-22.32c0.172-0.392,0.172-0.844-0.006-1.232
		c-0.013-2.213-0.036-4.424-0.061-6.612c0.373-0.638,0.456-1.411,0.027-2.217c-0.013-0.024-0.037-0.037-0.05-0.061
		c-0.002-0.179-0.004-0.363-0.006-0.542c-0.014-1.66-1.67-2.101-2.748-1.45c-2.938-0.98-7.123-0.629-9.339-0.809
		c-8.207-0.665-16.388-0.783-24.593-0.029c-1.108,0.102-1.643,0.942-1.615,1.76c-0.71,0.333-1.287,0.967-1.358,1.958
		c-0.228,3.18-0.101,6.447,0.284,9.662c-7.806-4.729-15.93-8.972-23.71-13.758c-7.537-4.636-15.185-11.655-23.755-13.964
		c-0.624-0.992-1.842-1.573-3.123-0.764C93.621,45.892,49.817,67.899,9.721,94.66c-2.35,1.292-4.742,2.488-7.12,3.731
		c-0.552,0.289-0.843,0.698-0.978,1.136c-0.695-0.118-1.539,0.311-1.602,1.153c-0.384,5.049,4.639,10.216,7.323,14.183
		c3.52,5.202,6.812,11.111,11.217,15.602c0.514,0.525,1.102,0.615,1.616,0.455c0.48,0.771,1.583,1.151,2.562,0.381
		c2.843-2.235,5.621-4.519,8.672-6.473c1.74-1.114,3.748-2.037,5.557-3.159c-1.43,43.19,1.942,87.009,3.342,130.18
		c0.062,1.913,2.04,2.531,3.347,1.899c20.895,2.996,44.163,2.481,65.085,0.986c1.921-0.137,2.577-2.065,1.961-3.375
		c0.573,0.278,1.352,0.134,1.509-0.614c2.133-10.167,0.577-20.985,0.169-31.314c-0.409-10.358-0.435-20.804-1.794-31.087
		c16.249,4.048,35.613,3.188,51.88,0.97c-1.077,20.748,0.136,41.781,0.746,62.528c0.011,0.355,0.093,0.662,0.216,0.933
		c-0.292,1.07,0.599,2.302,1.775,2.362c23.311,1.182,46.94-0.401,70.271-0.882c1.424-0.029,2.152-0.943,2.291-1.969
		c0.673-0.234,1.199-0.832,1.189-1.805c-0.457-43.559-2.917-87.123-3.835-130.684c6.434,3.061,12.842,6.128,19.114,9.533
		c1.326,0.72,2.725,0.079,3.28-1.068c0.622-0.02,1.243-0.274,1.684-0.93c5.924-8.805,11.455-17.929,16.159-27.449
		C276.35,97.875,274.708,96.328,273.116,96.326z M255.892,124.647c-0.219-0.063-0.441-0.121-0.681-0.136
		c-5.39-2.822-10.935-5.402-16.633-7.551c7.355,0.16,14.697,0.157,21.988-0.165C259.029,119.423,257.524,122.066,255.892,124.647z
		 M191.866,99.85c25.587,0.513,51.337,2.518,76.922,2.091c-2.265,4.304-4.576,8.577-6.993,12.788
		c-0.212-0.371-0.535-0.682-1.091-0.734c-21.946-2.068-44.462-1.393-66.496-1.358c-1.437,0.002-1.421,2.148,0,2.22
		c12.192,0.623,24.524,1.437,36.845,1.885c-0.534,0.383-0.918,0.975-0.903,1.849c0.031,1.842,0.086,3.692,0.123,5.536
		c-12.435,0.209-24.814,0.175-37.235-0.543c-1.212-0.07-1.173,1.745,0,1.864c12.39,1.256,24.849,2.054,37.307,1.949
		c0.135,6.284,0.268,12.566,0.418,18.854c-0.131-0.022-0.252-0.059-0.408-0.045c-11.658,1.082-23.274,1.816-34.988,1.739
		c-1.459-0.009-1.451,2.208,0,2.261c11.674,0.426,23.36,0.279,34.988-0.907c0.179-0.018,0.325-0.083,0.472-0.145
		c0.091,3.753,0.155,7.499,0.249,11.253c-12.401,1.361-24.313,2.782-36.914,2.276c-1.102-0.044-1.055,1.572,0,1.685
		c11.974,1.279,25.04,1.502,36.978-1.077c0.084,3.295,0.126,6.583,0.219,9.878c-12.775,0.029-25.554,0.413-38.326,0.682
		c-1.148,0.024-1.15,1.76,0,1.785c12.8,0.269,25.608,0.655,38.411,0.682c0.109,3.784,0.184,7.567,0.309,11.35
		c-0.08-0.027-0.131-0.1-0.22-0.107c-11.828-0.897-24.319,0.888-36.163,1.577c-1.087,0.063-1.106,1.725,0,1.705
		c11.953-0.209,24.62,0.6,36.443-1.198c0.121,3.566,0.179,7.133,0.32,10.698c-11.793-0.221-23.757,1.332-35.599,1.365
		c-1.346,0.004-1.335,2.022,0,2.082c11.54,0.521,24.272,1.176,35.693-1.059c0.119,2.893,0.207,5.789,0.343,8.68
		c-12.761,1.606-25.511,2.693-38.38,2.962c-0.882,0.019-0.879,1.333,0,1.368c12.873,0.517,25.726,0.109,38.515-1.466
		c0.169,3.44,0.289,6.886,0.487,10.323c-14.545-0.077-29.124,0.192-43.66,0.68c-1.033,0.035-1.035,1.572,0,1.606
		c14.593,0.489,29.229,0.762,43.831,0.681c0.162,2.679,0.384,5.352,0.561,8.029c-2.306,0.018-4.843,0.893-7.001,1.425
		c-12.275-1.017-25.229,0.385-37.391,0.63c-1.033,0.021-1.035,1.586,0,1.606c13.784,0.265,28.583,2.024,42.248,0.057
		c0.536-0.077,0.701-0.663,0.578-1.143c0.602-0.101,1.169-0.243,1.717-0.421c0.264,3.855,0.49,7.716,0.808,11.565l-2.049-0.211
		c-0.579-0.06-1.008,0.095-1.324,0.356c-10.39,0.219-20.78,0.438-31.17,0.657c-2.798,0.059-30.392-0.875-32.453,1.227
		c-0.356-21.148-0.094-42.615-2.295-63.659c-0.103-0.987-0.864-1.484-1.604-1.476c-0.34-0.593-0.909-1.043-1.694-1.033
		c-17.85,0.228-36.464-1.245-54.198,0.127c-1.006,0.077-1.435,1.179-0.977,1.872c-0.307,0.325-0.527,0.734-0.554,1.229
		c-0.587,11.081,0.431,22.326,0.917,33.413c0.42,9.579-0.111,19.578,2.617,28.807c-0.35-0.267-0.778-0.466-1.355-0.471
		c-11.572-0.099-23.142,0.077-34.716-0.067c-5.269-0.066-10.538-0.154-15.807-0.152c-3.514-0.037-7.027,0-10.538,0.112
		c-1.179-0.226-2.146-0.358-2.934-0.41c-1.047-43.274-0.262-87.277-4.371-130.346c-0.03-0.32-0.14-0.577-0.281-0.802
		c0.035-1.159-1.158-2.2-2.483-1.999c-3.358,0.507-6.661,3.234-9.324,5.235c-2.556,1.922-4.975,4.042-7.12,6.42
		c-2.295-4.835-5.938-9.174-8.993-13.558c-1.473-2.113-2.955-4.22-4.485-6.292c-1.177-1.595-3.333-3.958-4.481-6.105
		c0.471,0.135,0.996,0.139,1.545-0.117c1.621-0.758,3.082-1.782,4.407-2.965c44.505-19.829,86.61-48.85,127.709-74.836
		c0.247-0.156,0.408-0.351,0.569-0.544c5.071,6.178,13.213,10.165,19.879,14.337c9.213,5.767,18.647,11.739,28.608,16.107
		c0.109,0.048,0.21,0.044,0.317,0.076c0.905,0.866,2.819,0.331,2.803-1.18c-0.001-0.101,0.003-0.2,0.002-0.3
		c0.104-0.351,0.113-0.715,0.009-1.076c-0.014-4.267,0.098-8.485,0.345-12.756c0.005-0.091-0.031-0.153-0.034-0.238
		c5.057,0.383,10.122,0.701,15.183,1.007c2.587,0.156,5.173,0.308,7.757,0.5c1.5,0.112,5.929-0.258,7.857,0.355
		c0.072,0.144,0.175,0.266,0.27,0.394c-0.152,1.67-0.286,3.364-0.428,5.049c-6.211-0.367-12.679,0.187-18.807,0.261
		c-1.671,0.021-1.674,2.578,0,2.598c6.041,0.074,12.412,0.617,18.54,0.283c-0.251,3.258-0.462,6.527-0.572,9.787
		c-0.134-0.071-0.243-0.176-0.412-0.189c-9.202-0.664-18.758,0.863-28.051,0.603c-1.222-0.034-1.198,1.799,0,1.884
		c9.032,0.633,19.465,1.802,28.349-0.286c0.023-0.006,0.026-0.027,0.049-0.033c-0.058,2.945-0.05,5.878,0.135,8.77
		c-0.668,0.468-0.898,1.385-0.288,2.076c-11.361-0.194-22.713,0.23-34.102-0.541c-1.351-0.092-1.31,1.946,0,2.082
		c12.592,1.306,25.937,2.611,38.594,1.234c6.08,3.601,12.264,6.99,18.527,10.27c-16.323-0.808-32.698-0.369-48.955,1.279
		c-1.158,0.117-1.204,1.905,0,1.844c17.97-0.908,35.777-0.704,53.732,0.395c0.507,0.031,0.884-0.141,1.149-0.41
		c2.459,1.278,4.918,2.557,7.38,3.829c2.43,1.254,4.86,2.509,7.29,3.762c2.086,1.836,4.333,2.376,6.739,1.66
		c-0.47,0.723-0.506,1.671,0.317,2.374c0.01,0.008,0.019,0.017,0.029,0.025c-25.679-2.742-51.989-2.047-77.784-1.91
		C190.449,97.656,190.45,99.821,191.866,99.85z"/>
	<path style="fill:#1D1D1B;" d="M228.12,135.629c-11.818-0.273-23.259,1.21-35.15-0.08c-1.233-0.134-1.531,1.979-0.295,2.181
		c11.321,1.846,24.569,3.418,35.772,0.314C229.794,137.67,229.505,135.661,228.12,135.629z"/>
</g>
<g>
</g>
<g>
</g>
<g>
</g>
<g>
</g>
<g>
</g>
<g>
</g>
<g>
</g>
<g>
</g>
<g>
</g>
<g>
</g>
<g>
</g>
<g>
</g>
<g>
</g>
<g>
</g>
<g>
</g>
</svg>
